# xmcd
#
# Track frame offsets:
#	150
#	13213
#	26068
#	44330
#	55518
#	72545
#	83883
#	96785
#	116833
#	131033
#	146433
#	167160
#	178208
#
# Disc length: 2571 seconds
#
# Revision: 1
# Processed by: cddbd v1.5.2PL0 Copyright (c) Steve Scherf et al.
# Submitted via: EZCDAudioConverter 8.2.2.1
#
DISCID=bb0a090d
DTITLE=SOM LIVRE - SOM BRASIL - 1989 [CD 401.0051) SOM LIVRE
DYEAR=1989
DGENRE=Country
TTITLE0=CHITÃOZINHO and XORORÓ - FIO DE CABELO (BY GILMAR SINISTRO)
TTITLE1=JOÃO MINEIRO and MARCIANO - ESTA NOITE COMO LEMBRANÇA (BY GILMAR SINISTR
TTITLE1=O)
TTITLE2=GAÚCHO DA FRONTEIRA - GAITEIRO, CHINA E CORDEONA (BY GILMAR SINISTRO)
TTITLE3=TIÃO CARREIRO and PARDINHO - A MAJESTADE 'O PADODE') (BY GILMAR SINISTRO
TTITLE3=)
TTITLE4=PENA BRANCA E XAVANTINHO - O CIO DA TERRA (PART. ESP. MILTON NASCIMENT
TTITLE4=O) (BY GILMAR SINISTRO)
TTITLE5=RENATO ANDRADE - PONTEADO  CAIPIRA (BY GILMAR SINISTRO)
TTITLE6=RENATO TEIXEIRA - AMANHECEU, PEGUEI A VIOLA (BY GILMAR SINISTRO)
TTITLE7=CARLOS CESAR and CRISTIANO - LUA E FLOR (BY GILMAR SINISTRO)
TTITLE8=RENATO TEIXEIRA and GRUPO PARANGA - O PIÁ DE DOIS MUTUM (PART. ESP. ZÉ G
TTITLE8=OMES) (BY GILMAR SINISTRO)
TTITLE9=GILBERTO MONTEIRO - PRA TI, GURIA (BY GILMAR SINISTRO)
TTITLE10=LULA BARBOSA - VELHO LUA (BY GILMAR SINISTRO)
TTITLE11=DOMINGUINHOS - FEITO FOGO (BY GILMAR SINISTRO)
TTITLE12=CHARLES GONÇALVES - ESPINHA DE BACALHAU (BY GILMAR SINISTRO)
EXTD=
EXTT0=
EXTT1=
EXTT2=
EXTT3=
EXTT4=
EXTT5=
EXTT6=
EXTT7=
EXTT8=
EXTT9=
EXTT10=
EXTT11=
EXTT12=
PLAYORDER=
